<svg width="40" height="40" viewBox="0 0 40 40" fill="none" xmlns="http://www.w3.org/2000/svg">
<g filter="url(#filter0_d_114_4722)">
<circle cx="20" cy="16" r="16" fill="#7485FF"/>
<path d="M23.4286 16.5702H20.5714V19.4274C20.5714 19.5789 20.5112 19.7243 20.4041 19.8314C20.2969 19.9386 20.1516 19.9988 20 19.9988C19.8484 19.9988 19.7031 19.9386 19.5959 19.8314C19.4888 19.7243 19.4286 19.5789 19.4286 19.4274V16.5702H16.5714C16.4199 16.5702 16.2745 16.51 16.1674 16.4028C16.0602 16.2957 16 16.1503 16 15.9988C16 15.8472 16.0602 15.7019 16.1674 15.5947C16.2745 15.4876 16.4199 15.4274 16.5714 15.4274H19.4286V12.5702C19.4286 12.4187 19.4888 12.2733 19.5959 12.1661C19.7031 12.059 19.8484 11.9988 20 11.9988C20.1516 11.9988 20.2969 12.059 20.4041 12.1661C20.5112 12.2733 20.5714 12.4187 20.5714 12.5702V15.4274H23.4286C23.5801 15.4274 23.7255 15.4876 23.8326 15.5947C23.9398 15.7019 24 15.8472 24 15.9988C24 16.1503 23.9398 16.2957 23.8326 16.4028C23.7255 16.51 23.5801 16.5702 23.4286 16.5702Z" fill="white"/>
</g>
<defs>
<filter id="filter0_d_114_4722" x="0" y="0" width="40" height="40" filterUnits="userSpaceOnUse" color-interpolation-filters="sRGB">
<feFlood flood-opacity="0" result="BackgroundImageFix"/>
<feColorMatrix in="SourceAlpha" type="matrix" values="0 0 0 0 0 0 0 0 0 0 0 0 0 0 0 0 0 0 127 0" result="hardAlpha"/>
<feOffset dy="4"/>
<feGaussianBlur stdDeviation="2"/>
<feComposite in2="hardAlpha" operator="out"/>
<feColorMatrix type="matrix" values="0 0 0 0 0 0 0 0 0 0 0 0 0 0 0 0 0 0 0.1 0"/>
<feBlend mode="normal" in2="BackgroundImageFix" result="effect1_dropShadow_114_4722"/>
<feBlend mode="normal" in="SourceGraphic" in2="effect1_dropShadow_114_4722" result="shape"/>
</filter>
</defs>
</svg>
