<svg width="26" height="26" viewBox="0 0 26 26" fill="none" xmlns="http://www.w3.org/2000/svg">
<path fill-rule="evenodd" clip-rule="evenodd" d="M12.4953 25.3297C15.8093 25.4195 19.0233 24.1892 21.4301 21.9094C23.837 19.6296 25.2396 16.487 25.3295 13.173C25.4193 9.85906 24.189 6.64511 21.9092 4.23824C19.6294 1.83136 16.4868 0.428717 13.1729 0.338869C9.85887 0.249021 6.64492 1.47933 4.23805 3.75914C1.83117 6.03895 0.428526 9.18152 0.338678 12.4955C0.24883 15.8095 1.47914 19.0234 3.75895 21.4303C6.03876 23.8372 9.18133 25.2398 12.4953 25.3297ZM5.78812 19.4898L7.31878 15.2797L13.9496 9.03111L13.9578 9.02133L13.9538 9.02122L15.3256 7.71992C15.4309 7.62112 15.5546 7.54405 15.6897 7.49313C15.8248 7.4422 15.9686 7.41843 16.1129 7.42315C16.3958 7.43082 16.6759 7.54445 16.884 7.76217L18.1191 9.06813C18.3177 9.28138 18.4246 9.56415 18.4167 9.85548C18.4088 10.1468 18.2868 10.4234 18.0769 10.6256L16.7042 11.9248L16.6964 11.9146L10.0729 18.1894L5.78812 19.4898ZM7.41242 17.9512L9.21086 17.4058L8.05355 16.1839L7.41242 17.9512ZM10.0467 16.8342L15.6525 11.5272L14.2758 10.0973L8.6715 15.3824L10.0467 16.8342ZM16.3832 10.8497L17.3883 9.89763C17.4355 9.85389 17.437 9.80091 17.3922 9.75368L16.1572 8.44773C16.1125 8.4005 16.0605 8.39909 16.0132 8.44382L14.9978 9.40666L16.3832 10.8497Z" fill="black" fill-opacity="0.7"/>
</svg>
