<svg width="93" height="93" viewBox="0 0 93 93" fill="none" xmlns="http://www.w3.org/2000/svg">
<g filter="url(#filter0_d_36_8061)">
<path d="M67.7499 46.0345H50.0416V63.7428C50.0416 64.6821 49.6684 65.583 49.0043 66.2472C48.3401 66.9114 47.4392 67.2845 46.4999 67.2845C45.5606 67.2845 44.6598 66.9114 43.9956 66.2472C43.3314 65.583 42.9583 64.6821 42.9583 63.7428V46.0345H25.2499C24.3106 46.0345 23.4098 45.6614 22.7456 44.9972C22.0814 44.333 21.7083 43.4321 21.7083 42.4928C21.7083 41.5535 22.0814 40.6527 22.7456 39.9885C23.4098 39.3243 24.3106 38.9512 25.2499 38.9512H42.9583V21.2428C42.9583 20.3035 43.3314 19.4027 43.9956 18.7385C44.6598 18.0743 45.5606 17.7012 46.4999 17.7012C47.4392 17.7012 48.3401 18.0743 49.0043 18.7385C49.6684 19.4027 50.0416 20.3035 50.0416 21.2428V38.9512H67.7499C68.6892 38.9512 69.5901 39.3243 70.2543 39.9885C70.9184 40.6527 71.2916 41.5535 71.2916 42.4928C71.2916 43.4321 70.9184 44.333 70.2543 44.9972C69.5901 45.6614 68.6892 46.0345 67.7499 46.0345Z" fill="white"/>
</g>
<defs>
<filter id="filter0_d_36_8061" x="0" y="0" width="93" height="93" filterUnits="userSpaceOnUse" color-interpolation-filters="sRGB">
<feFlood flood-opacity="0" result="BackgroundImageFix"/>
<feColorMatrix in="SourceAlpha" type="matrix" values="0 0 0 0 0 0 0 0 0 0 0 0 0 0 0 0 0 0 127 0" result="hardAlpha"/>
<feOffset dy="4"/>
<feGaussianBlur stdDeviation="2"/>
<feComposite in2="hardAlpha" operator="out"/>
<feColorMatrix type="matrix" values="0 0 0 0 0 0 0 0 0 0 0 0 0 0 0 0 0 0 0.1 0"/>
<feBlend mode="normal" in2="BackgroundImageFix" result="effect1_dropShadow_36_8061"/>
<feBlend mode="normal" in="SourceGraphic" in2="effect1_dropShadow_36_8061" result="shape"/>
</filter>
</defs>
</svg>
